<svg width="792" height="868" viewBox="0 0 792 868" fill="none" xmlns="http://www.w3.org/2000/svg">
<path d="M82.2469 576.788C83.9801 581.634 87.2809 583.674 92.1491 582.909C95.5 582.382 97.6374 580.524 98.5614 577.334C99.4854 574.144 99.4208 569.198 98.3676 562.496C97.2847 564.675 95.6264 566.49 93.3928 567.942C91.1592 569.395 88.5566 570.354 85.5851 570.821C81.5387 571.457 77.8058 571.202 74.3863 570.055C70.9568 568.844 68.067 566.739 65.7169 563.74C63.42 560.667 61.899 556.76 61.1539 552.018C60.4187 547.34 60.7262 543.113 62.0765 539.337C63.49 535.552 65.818 532.433 69.0604 529.98C72.3662 527.517 76.4531 525.903 81.3214 525.137C90.6786 523.667 97.6793 525.547 102.324 530.777C106.968 536.008 110.179 544.282 111.958 555.599C113.249 563.818 113.559 570.734 112.886 576.346C112.266 581.886 110.405 586.324 107.301 589.663C104.261 592.991 99.7063 595.132 93.6367 596.086C88.8317 596.841 84.5731 596.538 80.8609 595.178C77.212 593.808 74.2274 591.718 71.907 588.908C69.6499 586.088 68.1018 582.833 67.2627 579.143L82.2469 576.788ZM87.2718 557.437C89.9272 557.02 91.921 555.897 93.2532 554.068C94.5755 552.176 95.0181 549.839 94.5809 547.057C94.104 544.022 92.9145 541.812 91.0123 540.426C89.1102 539.041 86.7682 538.567 83.9863 539.004C81.2045 539.441 79.1258 540.642 77.7502 542.608C76.4279 544.5 75.9953 546.9 76.4523 549.808C76.8795 552.527 78.0176 554.616 79.8664 556.074C81.7686 557.46 84.237 557.914 87.2718 557.437ZM110.786 556.657C109.077 545.783 109.818 536.888 113.007 529.973C116.259 523.048 122.564 518.851 131.921 517.38C141.278 515.91 148.535 517.976 153.691 523.58C158.911 529.173 162.375 537.407 164.084 548.282C165.813 559.283 165.051 568.246 161.799 575.171C158.61 582.086 152.336 586.278 142.979 587.749C133.622 589.219 126.334 587.158 121.114 581.564C115.958 575.961 112.515 567.658 110.786 556.657ZM148.152 550.786C147.148 544.4 145.683 539.609 143.755 536.414C141.818 533.155 138.668 531.869 134.306 532.554C129.943 533.24 127.34 535.43 126.495 539.126C125.641 542.759 125.715 547.768 126.719 554.154C127.394 558.453 128.209 561.985 129.161 564.751C130.104 567.453 131.474 569.57 133.269 571.102C135.118 572.561 137.56 573.052 140.595 572.575C143.629 572.098 145.771 570.887 147.021 568.941C148.323 566.923 149.008 564.483 149.077 561.621C149.136 558.697 148.827 555.085 148.152 550.786ZM158.818 532.492C158.013 527.371 158.847 523.191 161.318 519.952C163.852 516.703 167.459 514.711 172.137 513.976C176.816 513.241 180.828 514.035 184.173 516.36C187.519 518.685 189.594 522.408 190.399 527.529C191.203 532.65 190.37 536.83 187.899 540.069C185.428 543.308 181.853 545.295 177.174 546.031C172.496 546.766 168.452 545.976 165.043 543.661C161.698 541.336 159.623 537.613 158.818 532.492ZM220.857 507.389L194.837 579.891L179.189 582.35L205.209 509.848L220.857 507.389ZM173.533 523.474C170.498 523.951 169.323 526.371 170.009 530.733C170.684 535.033 172.54 536.944 175.574 536.467C177.028 536.238 178.082 535.522 178.735 534.318C179.388 533.114 179.546 531.437 179.208 529.288C178.522 524.925 176.631 522.988 173.533 523.474ZM209.743 562.195C208.938 557.073 209.771 552.893 212.242 549.655C214.713 546.416 218.288 544.429 222.967 543.693C227.645 542.958 231.657 543.753 235.003 546.078C238.348 548.403 240.423 552.126 241.228 557.247C242.033 562.368 241.2 566.548 238.729 569.787C236.257 573.026 232.683 575.013 228.004 575.748C223.325 576.483 219.313 575.688 215.968 573.364C212.622 571.039 210.547 567.316 209.743 562.195ZM224.362 553.192C222.908 553.42 221.854 554.137 221.201 555.341C220.612 556.535 220.491 558.238 220.838 560.451C221.514 564.75 223.369 566.661 226.404 566.184C227.858 565.956 228.912 565.24 229.565 564.036C230.218 562.832 230.375 561.155 230.037 559.005C229.7 556.856 229.035 555.308 228.045 554.362C227.044 553.354 225.816 552.963 224.362 553.192Z" fill="#FC800E" fill-opacity="0.21"/>
<path d="M316.442 586.032C309.834 584.37 305.708 580.214 304.065 573.567C303.235 570.212 303.353 566.952 304.416 563.788C305.465 560.563 307.56 557.704 310.702 555.213C313.829 552.66 317.97 550.746 323.127 549.471C328.284 548.197 332.809 547.968 336.703 548.785C340.644 549.525 343.83 551.078 346.261 553.444C348.676 555.747 350.298 558.576 351.128 561.931C351.957 565.286 351.872 568.406 350.871 571.291C349.932 574.16 348.303 576.639 345.985 578.729C349.739 579.515 352.871 581.114 355.379 583.526C357.872 585.877 359.587 588.947 360.524 592.737C361.614 597.148 361.441 601.245 360.003 605.029C358.549 608.751 356.104 611.926 352.667 614.556C349.292 617.171 345.274 619.054 340.615 620.206C335.955 621.358 331.492 621.571 327.225 620.846C323.02 620.106 319.408 618.427 316.388 615.812C313.352 613.134 311.29 609.59 310.199 605.178C309.247 601.326 309.326 597.78 310.436 594.538C311.531 591.235 313.534 588.4 316.442 586.032ZM336.257 568.179C335.627 565.632 334.398 563.859 332.569 562.861C330.786 561.785 328.684 561.547 326.261 562.146C323.838 562.745 322.057 563.943 320.919 565.741C319.844 567.523 319.621 569.688 320.25 572.235C320.849 574.658 322.071 576.4 323.915 577.46C325.745 578.458 327.839 578.666 330.2 578.082C332.561 577.498 334.311 576.308 335.449 574.51C336.586 572.712 336.856 570.602 336.257 568.179ZM332.965 589.265C330.045 589.987 327.884 591.379 326.481 593.439C325.064 595.438 324.7 597.835 325.392 600.631C326.037 603.241 327.437 605.169 329.591 606.416C331.807 607.649 334.407 607.896 337.389 607.159C340.371 606.421 342.494 605.007 343.756 602.914C345.081 600.807 345.421 598.448 344.776 595.839C344.1 593.105 342.662 591.153 340.461 589.983C338.322 588.798 335.823 588.559 332.965 589.265ZM399.452 546.82L370.375 554.009L373.554 566.869C374.459 565.195 375.922 563.647 377.944 562.224C379.966 560.801 382.281 559.767 384.89 559.122C389.55 557.97 393.663 558.074 397.23 559.434C400.859 560.778 403.802 562.951 406.061 565.953C408.319 568.955 409.932 572.413 410.9 576.327C412.697 583.596 412.075 589.881 409.034 595.182C405.978 600.42 400.723 603.961 393.267 605.804C388.297 607.033 383.771 607.262 379.691 606.491C375.595 605.657 372.177 603.964 369.436 601.411C366.695 598.858 364.74 595.617 363.571 591.687L379.134 587.839C379.983 589.673 381.283 591.066 383.035 592.017C384.771 592.906 386.882 593.044 389.367 592.429C392.287 591.707 394.231 590.238 395.199 588.021C396.168 585.804 396.268 583.142 395.5 580.035C394.747 576.991 393.425 574.845 391.535 573.599C389.645 572.352 387.27 572.082 384.412 572.788C382.3 573.311 380.691 574.269 379.585 575.663C378.464 576.995 377.893 578.553 377.873 580.338L362.496 584.14L352.474 543.601L395.996 532.841L399.452 546.82ZM401.879 549.681C400.634 544.649 401.103 540.412 403.286 536.972C405.53 533.516 408.951 531.22 413.548 530.084C418.146 528.947 422.212 529.392 425.745 531.419C429.279 533.447 431.668 536.976 432.912 542.009C434.156 547.041 433.687 551.278 431.505 554.718C429.323 558.158 425.933 560.447 421.336 561.583C416.738 562.72 412.641 562.282 409.046 560.271C405.512 558.243 403.123 554.714 401.879 549.681ZM461.517 519.312L441.858 593.791L426.481 597.593L446.14 523.114L461.517 519.312ZM415.759 539.426C412.777 540.163 411.816 542.676 412.876 546.962C413.92 551.187 415.933 552.931 418.916 552.194C420.345 551.84 421.332 551.036 421.879 549.78C422.425 548.524 422.438 546.84 421.915 544.728C420.856 540.441 418.803 538.673 415.759 539.426ZM455.179 574.873C453.934 569.841 454.403 565.605 456.586 562.164C458.768 558.724 462.157 556.436 466.755 555.299C471.353 554.162 475.418 554.608 478.952 556.635C482.486 558.662 484.875 562.192 486.119 567.224C487.363 572.257 486.894 576.493 484.712 579.933C482.53 583.374 479.14 585.662 474.543 586.799C469.945 587.935 465.879 587.49 462.346 585.463C458.812 583.436 456.423 579.906 455.179 574.873ZM468.966 564.641C467.537 564.995 466.549 565.799 466.003 567.055C465.518 568.296 465.545 570.003 466.082 572.178C467.127 576.403 469.14 578.146 472.122 577.409C473.551 577.056 474.539 576.251 475.086 574.995C475.632 573.739 475.644 572.055 475.122 569.943C474.6 567.83 473.804 566.346 472.736 565.489C471.651 564.571 470.395 564.288 468.966 564.641Z" fill="#FC800E" fill-opacity="0.21"/>
<path d="M448.233 334.028C449.1 336.451 450.75 337.471 453.185 337.089C454.86 336.825 455.929 335.896 456.391 334.301C456.853 332.706 456.82 330.233 456.294 326.882C455.752 327.972 454.923 328.879 453.806 329.605C452.69 330.332 451.388 330.811 449.903 331.045C447.879 331.363 446.013 331.235 444.303 330.662C442.588 330.056 441.144 329.004 439.968 327.504C438.82 325.968 438.06 324.014 437.687 321.643C437.319 319.304 437.473 317.19 438.148 315.303C438.855 313.41 440.019 311.851 441.64 310.624C443.293 309.392 445.337 308.585 447.771 308.203C452.449 307.468 455.95 308.408 458.272 311.023C460.594 313.638 462.2 317.775 463.089 323.434C463.735 327.543 463.889 331.001 463.553 333.807C463.243 336.577 462.312 338.796 460.761 340.465C459.241 342.13 456.963 343.2 453.928 343.677C451.526 344.055 449.397 343.903 447.541 343.223C445.716 342.538 444.224 341.493 443.064 340.088C441.935 338.678 441.161 337.051 440.741 335.206L448.233 334.028ZM450.746 324.353C452.074 324.144 453.071 323.583 453.737 322.668C454.398 321.722 454.619 320.554 454.4 319.163C454.162 317.645 453.567 316.54 452.616 315.847C451.665 315.155 450.494 314.918 449.103 315.136C447.712 315.355 446.673 315.955 445.985 316.938C445.324 317.884 445.108 319.084 445.336 320.538C445.55 321.898 446.119 322.942 447.043 323.671C447.994 324.364 449.229 324.591 450.746 324.353ZM462.503 323.963C461.649 318.526 462.019 314.078 463.613 310.621C465.24 307.158 468.392 305.06 473.071 304.324C477.749 303.589 481.378 304.622 483.956 307.424C486.566 310.221 488.298 314.338 489.152 319.775C490.017 325.276 489.636 329.757 488.009 333.22C486.415 336.677 483.278 338.773 478.6 339.509C473.921 340.244 470.277 339.213 467.667 336.416C465.089 333.615 463.368 329.463 462.503 323.963ZM481.186 321.027C480.684 317.834 479.951 315.439 478.988 313.841C478.019 312.212 476.444 311.568 474.263 311.911C472.082 312.254 470.78 313.349 470.358 315.197C469.93 317.014 469.968 319.518 470.469 322.711C470.807 324.861 471.214 326.627 471.691 328.01C472.162 329.361 472.847 330.419 473.745 331.185C474.669 331.915 475.89 332.16 477.407 331.922C478.925 331.683 479.996 331.078 480.62 330.105C481.271 329.096 481.614 327.876 481.649 326.445C481.678 324.983 481.524 323.177 481.186 321.027ZM486.519 311.88C486.117 309.32 486.533 307.23 487.769 305.61C489.036 303.986 490.839 302.99 493.179 302.622C495.518 302.255 497.524 302.652 499.197 303.814C500.869 304.977 501.907 306.838 502.309 309.399C502.712 311.959 502.295 314.049 501.06 315.669C499.824 317.288 498.037 318.282 495.697 318.649C493.358 319.017 491.336 318.622 489.632 317.465C487.959 316.302 486.921 314.441 486.519 311.88ZM517.539 299.329L504.529 335.58L496.705 336.809L509.715 300.558L517.539 299.329ZM493.876 307.371C492.359 307.61 491.772 308.82 492.114 311.001C492.452 313.151 493.38 314.106 494.897 313.868C495.624 313.753 496.151 313.395 496.478 312.793C496.804 312.191 496.883 311.353 496.714 310.278C496.371 308.097 495.425 307.128 493.876 307.371ZM511.981 326.731C511.579 324.171 511.996 322.081 513.231 320.461C514.467 318.842 516.254 317.848 518.593 317.481C520.933 317.113 522.939 317.511 524.611 318.673C526.284 319.835 527.322 321.697 527.724 324.258C528.126 326.818 527.71 328.908 526.474 330.528C525.239 332.147 523.451 333.141 521.112 333.508C518.773 333.876 516.767 333.478 515.094 332.316C513.421 331.154 512.384 329.292 511.981 326.731ZM519.291 322.23C518.564 322.344 518.037 322.703 517.711 323.304C517.416 323.902 517.355 324.753 517.529 325.86C517.867 328.009 518.795 328.965 520.312 328.726C521.039 328.612 521.566 328.254 521.892 327.652C522.219 327.05 522.298 326.212 522.129 325.137C521.96 324.062 521.628 323.288 521.132 322.815C520.632 322.311 520.018 322.116 519.291 322.23Z" fill="#FC800E" fill-opacity="0.21"/>
<path d="M320.55 403.188C317.246 402.357 315.183 400.279 314.361 396.955C313.946 395.278 314.005 393.648 314.537 392.066C315.061 390.453 316.109 389.024 317.68 387.778C319.243 386.502 321.314 385.545 323.892 384.907C326.471 384.27 328.733 384.156 330.68 384.564C332.651 384.934 334.244 385.711 335.459 386.894C336.667 388.045 337.478 389.46 337.893 391.137C338.307 392.815 338.265 394.375 337.764 395.817C337.295 397.252 336.48 398.491 335.321 399.536C337.198 399.929 338.764 400.729 340.018 401.935C341.265 403.11 342.122 404.645 342.591 406.54C343.136 408.746 343.049 410.794 342.33 412.686C341.603 414.547 340.381 416.135 338.662 417.45C336.975 418.757 334.966 419.699 332.636 420.275C330.306 420.851 328.075 420.957 325.941 420.595C323.839 420.225 322.033 419.385 320.523 418.078C319.005 416.739 317.973 414.967 317.428 412.761C316.952 410.835 316.992 409.062 317.547 407.441C318.094 405.789 319.095 404.372 320.55 403.188ZM330.457 394.261C330.142 392.988 329.528 392.101 328.613 391.602C327.722 391.064 326.671 390.945 325.459 391.245C324.247 391.544 323.357 392.143 322.788 393.042C322.251 393.933 322.139 395.016 322.454 396.289C322.753 397.501 323.364 398.372 324.286 398.902C325.201 399.401 326.248 399.505 327.429 399.213C328.609 398.921 329.484 398.326 330.053 397.427C330.622 396.528 330.757 395.473 330.457 394.261ZM328.811 404.804C327.351 405.165 326.271 405.861 325.569 406.891C324.861 407.891 324.679 409.089 325.025 410.487C325.347 411.792 326.047 412.756 327.124 413.38C328.232 413.996 329.532 414.12 331.023 413.751C332.514 413.382 333.576 412.675 334.207 411.629C334.869 410.575 335.039 409.396 334.717 408.091C334.379 406.724 333.66 405.748 332.559 405.163C331.49 404.571 330.24 404.451 328.811 404.804ZM362.054 383.582L347.516 387.176L349.106 393.606C349.558 392.769 350.29 391.995 351.301 391.284C352.311 390.572 353.469 390.055 354.774 389.733C357.104 389.157 359.16 389.209 360.944 389.889C362.758 390.561 364.23 391.647 365.359 393.148C366.488 394.649 367.295 396.378 367.779 398.335C368.677 401.97 368.366 405.112 366.846 407.763C365.318 410.382 362.69 412.152 358.962 413.074C356.477 413.688 354.214 413.803 352.174 413.417C350.126 413 348.417 412.154 347.047 410.877C345.676 409.601 344.699 407.98 344.114 406.015L351.896 404.091C352.32 405.008 352.97 405.705 353.846 406.18C354.714 406.625 355.77 406.694 357.012 406.386C358.472 406.025 359.444 405.291 359.928 404.182C360.413 403.074 360.463 401.743 360.079 400.189C359.702 398.667 359.041 397.594 358.096 396.971C357.151 396.348 355.964 396.213 354.535 396.566C353.479 396.827 352.674 397.306 352.121 398.003C351.561 398.669 351.275 399.449 351.265 400.341L343.577 402.242L338.566 381.972L360.326 376.592L362.054 383.582ZM363.268 385.012C362.646 382.496 362.88 380.378 363.972 378.658C365.094 376.93 366.804 375.782 369.103 375.214C371.402 374.645 373.435 374.868 375.201 375.881C376.968 376.895 378.163 378.66 378.785 381.176C379.407 383.692 379.172 385.811 378.081 387.531C376.99 389.251 375.295 390.395 372.997 390.963C370.698 391.532 368.649 391.313 366.852 390.307C365.085 389.293 363.89 387.529 363.268 385.012ZM393.087 369.828L383.258 407.067L375.569 408.968L385.399 371.729L393.087 369.828ZM370.208 379.885C368.717 380.253 368.237 381.51 368.766 383.653C369.289 385.765 370.295 386.637 371.787 386.269C372.501 386.092 372.995 385.69 373.268 385.062C373.541 384.434 373.548 383.592 373.286 382.536C372.756 380.392 371.73 379.509 370.208 379.885ZM389.918 397.608C389.296 395.092 389.53 392.974 390.621 391.254C391.713 389.534 393.407 388.39 395.706 387.821C398.005 387.253 400.038 387.476 401.805 388.489C403.572 389.503 404.766 391.268 405.388 393.784C406.01 396.3 405.776 398.418 404.685 400.138C403.594 401.859 401.899 403.003 399.6 403.571C397.301 404.139 395.268 403.917 393.501 402.903C391.735 401.89 390.54 400.125 389.918 397.608ZM396.812 392.492C396.097 392.669 395.603 393.071 395.33 393.699C395.088 394.32 395.101 395.173 395.37 396.261C395.892 398.373 396.899 399.245 398.39 398.876C399.104 398.7 399.598 398.297 399.872 397.669C400.145 397.041 400.151 396.199 399.89 395.143C399.629 394.087 399.231 393.345 398.697 392.917C398.154 392.457 397.526 392.316 396.812 392.492Z" fill="#FC800E" fill-opacity="0.21"/>
<path d="M380.812 173.32L365.282 198.931L376.61 205.801C376.07 203.976 376.014 201.847 376.442 199.412C376.871 196.977 377.782 194.611 379.176 192.312C381.664 188.208 384.652 185.379 388.139 183.826C391.659 182.218 395.278 181.681 398.996 182.214C402.715 182.747 406.298 184.059 409.745 186.15C416.148 190.032 420.142 194.924 421.728 200.826C423.259 206.694 422.034 212.912 418.052 219.479C415.397 223.857 412.352 227.212 408.916 229.545C405.426 231.845 401.809 233.057 398.066 233.182C394.322 233.307 390.65 232.39 387.048 230.43L395.361 216.722C397.256 217.422 399.16 217.492 401.073 216.93C402.93 216.335 404.523 214.943 405.85 212.754C407.41 210.182 407.751 207.769 406.872 205.514C405.994 203.26 404.186 201.304 401.45 199.644C398.768 198.018 396.318 197.431 394.099 197.881C391.88 198.332 390.007 199.816 388.48 202.333C387.352 204.194 386.888 206.008 387.088 207.776C387.234 209.511 387.929 211.018 389.174 212.297L380.961 225.841L345.253 204.188L368.499 165.854L380.812 173.32ZM399.285 180.998C389.872 175.29 383.552 168.987 380.324 162.09C377.13 155.139 377.988 147.613 382.9 139.514C387.811 131.415 394.071 127.202 401.679 126.875C409.32 126.494 417.847 129.157 427.259 134.865C436.781 140.639 443.14 147.002 446.334 153.954C449.561 160.851 448.72 168.349 443.808 176.448C438.897 184.547 432.621 188.788 424.98 189.169C417.372 189.496 408.807 186.772 399.285 180.998ZM418.897 148.655C413.37 145.304 408.763 143.334 405.078 142.746C401.338 142.125 398.323 143.702 396.034 147.478C393.744 151.254 393.739 154.657 396.019 157.686C398.244 160.682 402.12 163.855 407.647 167.207C411.368 169.464 414.593 171.12 417.321 172.175C419.995 173.197 422.496 173.517 424.824 173.132C427.131 172.66 429.081 171.111 430.674 168.484C432.267 165.857 432.723 163.439 432.042 161.23C431.339 158.932 429.917 156.835 427.774 154.937C425.577 153.006 422.618 150.912 418.897 148.655ZM411.796 128.705C407.363 126.017 404.706 122.685 403.825 118.707C402.977 114.675 403.78 110.634 406.236 106.584C408.692 102.535 411.887 99.9814 415.821 98.9242C419.755 97.867 423.939 98.6824 428.372 101.37C432.804 104.058 435.461 107.391 436.343 111.368C437.224 115.346 436.437 119.359 433.981 123.409C431.526 127.459 428.314 130.039 424.347 131.151C420.412 132.209 416.229 131.393 411.796 128.705ZM432.625 65.1035L471.25 131.75L463.037 145.294L424.411 78.6478L432.625 65.1035ZM414.395 111.644C412.802 114.271 413.894 116.729 417.67 119.019C421.391 121.276 424.048 121.09 425.641 118.464C426.404 117.205 426.536 115.938 426.037 114.662C425.538 113.387 424.359 112.185 422.498 111.057C418.722 108.767 416.021 108.963 414.395 111.644ZM467.339 108.945C462.907 106.257 460.25 102.925 459.368 98.9472C458.487 94.9697 459.274 90.9562 461.73 86.9066C464.185 82.857 467.38 80.3035 471.315 79.2463C475.249 78.1891 479.433 79.0045 483.865 81.6924C488.298 84.3804 490.955 87.7131 491.836 91.6905C492.718 95.668 491.931 99.6815 489.475 103.731C487.019 107.781 483.824 110.334 479.89 111.391C475.956 112.449 471.772 111.633 467.339 108.945ZM469.889 91.9663C469.125 93.225 468.993 94.4921 469.492 95.7677C470.024 96.9885 471.248 98.1797 473.163 99.3411C476.885 101.598 479.542 101.413 481.135 98.7858C481.898 97.5271 482.03 96.26 481.531 94.9844C481.032 93.7089 479.852 92.507 477.992 91.3787C476.131 90.2504 474.52 89.7599 473.158 89.9072C471.742 90.0213 470.652 90.7077 469.889 91.9663Z" fill="#FC800E" fill-opacity="0.21"/>
<path d="M614.374 495.256L633.184 538.285L624.47 547.386L606.797 505.147L591.312 521.322L583.719 514.052L607.769 488.933L614.374 495.256ZM624.394 508.423C618.431 502.714 614.828 497.072 613.587 491.497C612.378 485.888 614.231 480.517 619.143 475.386C624.056 470.255 629.324 468.188 634.948 469.186C640.604 470.149 646.414 473.486 652.378 479.195C658.41 484.971 662.031 490.664 663.239 496.273C664.481 501.848 662.645 507.201 657.733 512.332C652.82 517.463 647.535 519.547 641.879 518.584C636.255 517.586 630.427 514.199 624.394 508.423ZM644.013 487.932C640.511 484.58 637.459 482.388 634.856 481.359C632.219 480.296 629.755 480.96 627.465 483.353C625.174 485.745 624.617 488.236 625.794 490.824C626.936 493.379 629.258 496.333 632.759 499.686C635.117 501.943 637.209 503.68 639.035 504.896C640.826 506.08 642.605 506.72 644.372 506.817C646.138 506.847 647.818 506.029 649.411 504.365C651.005 502.701 651.732 501.005 651.592 499.276C651.451 497.48 650.751 495.713 649.491 493.975C648.196 492.204 646.37 490.19 644.013 487.932ZM642.058 472.171C639.249 469.482 637.846 466.61 637.847 463.555C637.882 460.465 639.127 457.637 641.584 455.071C644.04 452.505 646.795 451.155 649.847 451.021C652.9 450.887 655.83 452.164 658.638 454.853C661.447 457.542 662.85 460.414 662.849 463.469C662.847 466.525 661.619 469.335 659.162 471.901C656.706 474.466 653.935 475.834 650.849 476.003C647.796 476.137 644.866 474.86 642.058 472.171ZM667.649 428.991L685.092 484.068L676.877 492.649L659.434 437.572L667.649 428.991ZM646.735 460.102C645.141 461.766 645.541 463.744 647.933 466.034C650.291 468.291 652.266 468.588 653.86 466.924C654.623 466.126 654.926 465.22 654.768 464.205C654.61 463.19 653.942 462.118 652.763 460.99C650.371 458.699 648.361 458.403 646.735 460.102ZM685.937 466.735C683.129 464.046 681.726 461.174 681.727 458.119C681.728 455.063 682.957 452.253 685.414 449.687C687.87 447.121 690.625 445.771 693.677 445.637C696.73 445.503 699.66 446.78 702.468 449.469C705.277 452.158 706.68 455.03 706.679 458.085C706.677 461.141 705.449 463.951 702.992 466.517C700.536 469.083 697.781 470.433 694.729 470.567C691.676 470.701 688.746 469.424 685.937 466.735ZM690.565 454.718C689.801 455.516 689.498 456.422 689.656 457.437C689.847 458.417 690.55 459.489 691.763 460.65C694.121 462.908 696.096 463.204 697.69 461.54C698.453 460.742 698.756 459.836 698.598 458.821C698.44 457.806 697.772 456.734 696.593 455.606C695.414 454.477 694.314 453.856 693.293 453.742C692.238 453.596 691.328 453.921 690.565 454.718Z" fill="#FC800E" fill-opacity="0.21"/>
<path d="M45.9362 252.155C44.4569 257.084 45.9038 260.684 50.2767 262.957C53.2867 264.52 56.1098 264.292 58.7461 262.272C61.3824 260.252 64.2645 256.232 67.3923 250.213C65.2282 251.324 62.8162 251.802 60.1565 251.646C57.4968 251.49 54.8323 250.719 52.1631 249.332C48.5285 247.443 45.675 245.023 43.6026 242.071C41.5598 239.062 40.4821 235.653 40.3695 231.844C40.3433 228.008 41.4368 223.96 43.6499 219.701C45.8335 215.499 48.5886 212.278 51.9153 210.04C55.2988 207.831 59.0233 206.701 63.0889 206.65C67.2112 206.628 71.4589 207.753 75.8318 210.025C84.237 214.392 88.7575 220.059 89.3935 227.025C90.0294 233.991 87.7064 242.556 82.4244 252.722C78.5884 260.105 74.7348 265.856 70.8636 269.975C67.0787 274.067 62.9469 276.536 58.4682 277.382C54.0463 278.258 49.1094 277.28 43.6574 274.447C39.3413 272.204 36.0924 269.434 33.9109 266.137C31.7862 262.869 30.6234 259.416 30.4223 255.778C30.2781 252.169 30.9628 248.63 32.4766 245.161L45.9362 252.155ZM61.4608 239.558C63.8461 240.797 66.1174 241.076 68.2749 240.394C70.4619 239.655 72.2046 238.036 73.503 235.537C74.9194 232.811 75.2729 230.326 74.5635 228.082C73.8541 225.839 72.25 224.067 69.7512 222.769C67.2524 221.471 64.8663 221.205 62.593 221.971C60.406 222.71 58.6339 224.385 57.2765 226.998C56.0076 229.44 55.6847 231.796 56.3078 234.067C57.0172 236.311 58.7348 238.141 61.4608 239.558ZM80.8534 252.879C85.9288 243.111 91.8013 236.39 98.4708 232.715C105.197 229.07 112.763 229.431 121.168 233.798C129.573 238.165 134.189 244.134 135.016 251.703C135.9 259.303 133.804 267.987 128.729 277.755C123.594 287.636 117.664 294.4 110.937 298.045C104.268 301.72 96.7306 301.374 88.3255 297.007C79.9203 292.639 75.2759 286.656 74.3922 279.057C73.5653 271.487 75.719 262.761 80.8534 252.879ZM114.417 270.319C117.397 264.583 119.06 259.857 119.404 256.141C119.777 252.368 118.005 249.464 114.086 247.428C110.167 245.392 106.772 245.611 103.9 248.085C101.057 250.503 98.1452 254.579 95.1649 260.315C93.1583 264.177 91.7183 267.504 90.8447 270.296C90.0007 273.031 89.8471 275.547 90.3838 277.846C91.0069 280.117 92.6814 281.96 95.4074 283.377C98.1334 284.793 100.576 285.089 102.736 284.264C104.982 283.411 106.981 281.853 108.734 279.591C110.516 277.271 112.411 274.18 114.417 270.319ZM133.856 261.919C136.246 257.319 139.397 254.448 143.308 253.307C147.275 252.195 151.36 252.731 155.563 254.914C159.765 257.098 162.524 260.118 163.838 263.974C165.152 267.83 164.614 272.059 162.224 276.659C159.833 281.259 156.683 284.13 152.772 285.271C148.861 286.412 144.805 285.891 140.602 283.708C136.4 281.524 133.613 278.489 132.242 274.604C130.928 270.748 131.466 266.519 133.856 261.919ZM198.692 278.514L134.734 321.445L120.678 314.141L184.636 271.211L198.692 278.514ZM151.051 263.389C148.325 261.973 145.944 263.224 143.908 267.142C141.902 271.004 142.262 273.643 144.988 275.06C146.294 275.738 147.567 275.787 148.807 275.205C150.047 274.623 151.168 273.367 152.172 271.436C154.208 267.517 153.834 264.835 151.051 263.389ZM157.232 316.041C159.622 311.441 162.772 308.57 166.683 307.428C170.594 306.287 174.65 306.808 178.853 308.992C183.056 311.175 185.814 314.195 187.128 318.051C188.442 321.908 187.904 326.136 185.514 330.736C183.124 335.336 179.973 338.207 176.062 339.348C172.152 340.49 168.095 339.969 163.892 337.785C159.69 335.601 156.932 332.581 155.618 328.725C154.303 324.869 154.842 320.641 157.232 316.041ZM174.342 317.466C173.035 316.787 171.762 316.739 170.522 317.321C169.339 317.932 168.231 319.232 167.199 321.219C165.192 325.081 165.552 327.72 168.278 329.137C169.584 329.815 170.857 329.864 172.097 329.282C173.337 328.7 174.458 327.444 175.462 325.513C176.465 323.582 176.848 321.942 176.612 320.593C176.405 319.187 175.648 318.145 174.342 317.466Z" fill="#FC800E" fill-opacity="0.21"/>
<path d="M556.092 119.377C551.758 114.118 550.902 108.325 553.522 101.999C554.845 98.8058 556.873 96.2514 559.606 94.3355C562.364 92.3605 565.746 91.3024 569.753 91.1611C573.785 90.9606 578.254 91.8768 583.162 93.9096C588.07 95.9424 591.848 98.4429 594.498 101.411C597.232 104.344 598.875 107.484 599.429 110.831C600.007 114.118 599.635 117.358 598.312 120.551C596.989 123.744 595.07 126.205 592.553 127.933C590.095 129.686 587.313 130.716 584.207 131.023C586.763 133.882 588.335 137.028 588.923 140.458C589.536 143.829 589.095 147.318 587.601 150.924C585.862 155.123 583.292 158.318 579.89 160.511C576.512 162.645 572.659 163.751 568.332 163.829C564.064 163.931 559.713 163.064 555.278 161.227C550.844 159.39 547.124 156.914 544.119 153.799C541.174 150.709 539.261 147.215 538.382 143.318C537.527 139.362 537.968 135.284 539.707 131.086C541.226 127.42 543.394 124.612 546.21 122.661C549.052 120.652 552.345 119.557 556.092 119.377ZM582.634 116.759C583.638 114.335 583.7 112.178 582.82 110.289C582.023 108.366 580.472 106.927 578.166 105.972C575.86 105.017 573.716 104.925 571.733 105.697C569.81 106.494 568.346 108.104 567.342 110.529C566.387 112.835 566.337 114.961 567.193 116.909C568.073 118.798 569.637 120.208 571.884 121.138C574.13 122.069 576.245 122.148 578.227 121.376C580.21 120.604 581.679 119.065 582.634 116.759ZM567.475 131.781C564.696 130.63 562.131 130.468 559.779 131.295C557.452 132.063 555.738 133.778 554.636 136.438C553.607 138.922 553.59 141.305 554.584 143.587C555.637 145.893 557.583 147.635 560.421 148.81C563.26 149.986 565.808 150.106 568.065 149.171C570.382 148.26 572.055 146.563 573.084 144.08C574.161 141.478 574.161 139.053 573.083 136.806C572.064 134.583 570.195 132.908 567.475 131.781ZM646.179 137.053L618.507 125.591L613.437 137.831C615.158 137.02 617.255 136.641 619.726 136.695C622.198 136.749 624.675 137.29 627.158 138.319C631.593 140.156 634.843 142.679 636.907 145.89C639.031 149.125 640.111 152.62 640.149 156.377C640.186 160.133 639.433 163.873 637.89 167.599C635.025 174.517 630.796 179.207 625.204 181.671C619.636 184.075 613.304 183.808 606.209 180.869C601.478 178.909 597.7 176.409 594.872 173.367C592.069 170.267 590.322 166.876 589.63 163.195C588.938 159.514 589.287 155.744 590.677 151.887L605.489 158.022C605.084 160.002 605.305 161.894 606.151 163.699C607.021 165.445 608.638 166.808 611.003 167.788C613.782 168.939 616.219 168.909 618.314 167.699C620.409 166.488 622.068 164.405 623.293 161.448C624.493 158.551 624.702 156.04 623.92 153.914C623.137 151.789 621.386 150.163 618.666 149.037C616.656 148.204 614.792 148.021 613.075 148.487C611.382 148.895 609.998 149.811 608.923 151.236L594.289 145.174L610.27 106.593L651.689 123.749L646.179 137.053ZM646.435 140.796C648.419 136.007 651.31 132.875 655.107 131.4C658.964 129.949 663.08 130.13 667.455 131.942C671.831 133.755 674.84 136.525 676.482 140.253C678.124 143.982 677.954 148.24 675.97 153.03C673.986 157.819 671.095 160.951 667.298 162.426C663.5 163.902 659.414 163.733 655.038 161.92C650.663 160.108 647.624 157.325 645.923 153.573C644.281 149.844 644.451 145.586 646.435 140.796ZM712.462 151.728L652.452 200.023L637.818 193.961L697.828 145.666L712.462 151.728ZM663.693 140.775C660.855 139.599 658.591 141.051 656.901 145.131C655.235 149.152 655.822 151.75 658.66 152.926C660.02 153.489 661.292 153.427 662.477 152.741C663.662 152.054 664.671 150.705 665.504 148.695C667.194 144.615 666.59 141.975 663.693 140.775ZM674.399 192.696C676.382 187.907 679.273 184.774 683.071 183.299C686.868 181.824 690.955 181.993 695.33 183.805C699.706 185.618 702.715 188.388 704.357 192.116C705.999 195.845 705.828 200.104 703.844 204.893C701.861 209.682 698.97 212.815 695.172 214.29C691.375 215.765 687.288 215.596 682.913 213.783C678.537 211.971 675.528 209.201 673.886 205.473C672.244 201.744 672.415 197.485 674.399 192.696ZM691.568 192.638C690.208 192.075 688.935 192.136 687.75 192.823C686.624 193.534 685.633 194.925 684.776 196.994C683.11 201.015 683.697 203.613 686.535 204.789C687.895 205.352 689.167 205.29 690.352 204.604C691.537 203.917 692.546 202.568 693.379 200.558C694.211 198.548 694.452 196.881 694.099 195.557C693.772 194.174 692.928 193.201 691.568 192.638Z" fill="#FC800E" fill-opacity="0.21"/>
<path d="M94.1471 378.171C93.4074 380.636 94.1308 382.436 96.3173 383.572C97.8223 384.354 99.2339 384.24 100.552 383.23C101.87 382.22 103.311 380.21 104.875 377.2C103.793 377.756 102.587 377.995 101.257 377.917C99.9274 377.839 98.5951 377.453 97.2605 376.76C95.4432 375.815 94.0164 374.605 92.9803 373.129C91.9588 371.625 91.42 369.921 91.3637 368.016C91.3506 366.098 91.8973 364.074 93.0039 361.944C94.0957 359.843 95.4733 358.233 97.1366 357.114C98.8284 356.009 100.691 355.444 102.723 355.419C104.785 355.408 106.908 355.97 109.095 357.107C113.297 359.29 115.558 362.123 115.876 365.606C116.194 369.089 115.032 373.372 112.391 378.455C110.473 382.146 108.546 385.022 106.611 387.081C104.718 389.127 102.652 390.362 100.413 390.785C98.2021 391.223 95.7337 390.734 93.0077 389.317C90.8496 388.196 89.2252 386.811 88.1344 385.162C87.0721 383.529 86.4906 381.802 86.3901 379.983C86.318 378.178 86.6604 376.409 87.4173 374.675L94.1471 378.171ZM101.909 371.873C103.102 372.492 104.238 372.632 105.316 372.291C106.41 371.921 107.281 371.112 107.93 369.862C108.639 368.499 108.815 367.257 108.461 366.135C108.106 365.013 107.304 364.128 106.055 363.478C104.805 362.829 103.612 362.696 102.475 363.079C101.382 363.449 100.496 364.287 99.8172 365.593C99.1828 366.814 99.0213 367.992 99.3329 369.128C99.6875 370.249 100.546 371.165 101.909 371.873ZM111.606 378.534C114.143 373.65 117.08 370.289 120.414 368.451C123.778 366.629 127.56 366.809 131.763 368.993C135.966 371.176 138.274 374.161 138.687 377.946C139.129 381.745 138.081 386.087 135.543 390.971C132.976 395.912 130.011 399.294 126.648 401.117C123.313 402.954 119.544 402.781 115.342 400.597C111.139 398.414 108.817 395.422 108.375 391.622C107.962 387.837 109.038 383.474 111.606 378.534ZM128.388 387.253C129.878 384.385 130.709 382.022 130.881 380.164C131.068 378.278 130.181 376.826 128.222 375.808C126.263 374.79 124.565 374.899 123.129 376.136C121.707 377.345 120.252 379.384 118.761 382.252C117.758 384.183 117.038 385.846 116.601 387.242C116.179 388.609 116.102 389.867 116.371 391.017C116.682 392.152 117.52 393.074 118.883 393.782C120.246 394.49 121.467 394.638 122.547 394.226C123.67 393.799 124.67 393.021 125.546 391.889C126.437 390.729 127.384 389.184 128.388 387.253ZM138.107 383.054C139.302 380.754 140.877 379.318 142.833 378.747C144.817 378.191 146.859 378.459 148.96 379.551C151.062 380.643 152.441 382.153 153.098 384.081C153.755 386.009 153.486 388.123 152.291 390.423C151.096 392.723 149.52 394.159 147.565 394.729C145.61 395.3 143.581 395.04 141.48 393.948C139.379 392.856 137.985 391.339 137.3 389.396C136.643 387.468 136.912 385.354 138.107 383.054ZM170.525 391.351L138.546 412.816L131.518 409.165L163.497 387.699L170.525 391.351ZM146.705 383.788C145.342 383.08 144.151 383.706 143.133 385.665C142.13 387.596 142.31 388.915 143.673 389.624C144.326 389.963 144.962 389.987 145.582 389.696C146.202 389.405 146.763 388.777 147.265 387.812C148.283 385.852 148.096 384.511 146.705 383.788ZM149.795 410.114C150.99 407.814 152.565 406.379 154.52 405.808C156.476 405.237 158.504 405.498 160.605 406.59C162.707 407.682 164.086 409.191 164.743 411.12C165.4 413.048 165.131 415.162 163.936 417.462C162.741 419.762 161.166 421.197 159.21 421.768C157.255 422.339 155.226 422.078 153.125 420.986C151.024 419.895 149.645 418.385 148.988 416.457C148.331 414.528 148.6 412.414 149.795 410.114ZM158.35 410.827C157.697 410.488 157.06 410.463 156.44 410.754C155.849 411.06 155.295 411.71 154.778 412.704C153.775 414.635 153.955 415.954 155.318 416.662C155.971 417.002 156.607 417.026 157.227 416.735C157.847 416.444 158.408 415.816 158.91 414.85C159.411 413.885 159.603 413.065 159.485 412.39C159.381 411.687 159.003 411.166 158.35 410.827Z" fill="#FC800E" fill-opacity="0.21"/>
<path d="M472.686 246.764C470.519 244.135 470.091 241.238 471.401 238.075C472.062 236.479 473.076 235.201 474.443 234.243C475.822 233.256 477.513 232.727 479.516 232.656C481.532 232.556 483.767 233.014 486.221 234.03C488.675 235.047 490.564 236.297 491.889 237.781C493.256 239.248 494.077 240.818 494.354 242.491C494.643 244.135 494.457 245.755 493.796 247.351C493.134 248.948 492.175 250.178 490.916 251.042C489.687 251.919 488.296 252.434 486.743 252.587C488.021 254.017 488.807 255.589 489.101 257.304C489.408 258.99 489.187 260.734 488.44 262.538C487.571 264.637 486.286 266.235 484.585 267.331C482.896 268.398 480.97 268.951 478.806 268.99C476.672 269.041 474.496 268.608 472.279 267.689C470.062 266.771 468.202 265.533 466.699 263.975C465.227 262.43 464.27 260.683 463.831 258.735C463.403 256.756 463.624 254.718 464.493 252.619C465.253 250.786 466.337 249.382 467.745 248.406C469.166 247.402 470.812 246.854 472.686 246.764ZM485.957 245.455C486.459 244.243 486.49 243.165 486.05 242.22C485.651 241.259 484.876 240.539 483.723 240.062C482.57 239.584 481.498 239.538 480.506 239.924C479.545 240.323 478.813 241.128 478.311 242.34C477.833 243.493 477.808 244.556 478.236 245.53C478.676 246.475 479.458 247.179 480.582 247.645C481.705 248.11 482.762 248.15 483.754 247.764C484.745 247.378 485.479 246.608 485.957 245.455ZM478.377 252.966C476.988 252.391 475.705 252.31 474.529 252.723C473.366 253.107 472.509 253.964 471.958 255.295C471.443 256.537 471.435 257.728 471.932 258.869C472.459 260.022 473.431 260.893 474.85 261.481C476.27 262.069 477.544 262.129 478.672 261.661C479.831 261.206 480.667 260.357 481.182 259.116C481.72 257.815 481.72 256.602 481.181 255.479C480.672 254.367 479.737 253.53 478.377 252.966ZM517.729 255.602L503.893 249.871L501.358 255.991C502.219 255.585 503.267 255.396 504.503 255.423C505.739 255.45 506.977 255.721 508.219 256.235C510.436 257.153 512.061 258.415 513.093 260.021C514.155 261.638 514.695 263.386 514.714 265.264C514.733 267.142 514.356 269.012 513.585 270.875C512.152 274.334 510.038 276.679 507.242 277.911C504.458 279.113 501.292 278.979 497.744 277.51C495.379 276.53 493.49 275.28 492.076 273.759C490.675 272.209 489.801 270.514 489.455 268.673C489.109 266.833 489.283 264.948 489.978 263.019L497.384 266.087C497.182 267.077 497.292 268.023 497.715 268.925C498.15 269.798 498.959 270.48 500.141 270.969C501.531 271.545 502.749 271.53 503.797 270.925C504.844 270.32 505.674 269.278 506.286 267.8C506.886 266.351 506.991 265.095 506.6 264.033C506.208 262.97 505.333 262.157 503.973 261.594C502.968 261.178 502.036 261.086 501.177 261.319C500.331 261.523 499.639 261.981 499.101 262.693L491.784 259.663L499.775 240.372L520.484 248.95L517.729 255.602ZM517.857 257.474C518.849 255.079 520.295 253.513 522.193 252.775C524.122 252.05 526.18 252.141 528.367 253.047C530.555 253.953 532.06 255.338 532.881 257.202C533.702 259.066 533.617 261.196 532.625 263.591C531.633 265.985 530.187 267.551 528.289 268.289C526.39 269.026 524.347 268.942 522.159 268.036C519.971 267.13 518.452 265.738 517.601 263.862C516.78 261.998 516.865 259.868 517.857 257.474ZM550.871 262.939L520.866 287.087L513.549 284.056L543.554 259.909L550.871 262.939ZM526.486 257.463C525.067 256.875 523.935 257.601 523.09 259.641C522.257 261.652 522.551 262.951 523.97 263.539C524.65 263.82 525.286 263.789 525.878 263.446C526.471 263.103 526.975 262.428 527.392 261.423C528.237 259.383 527.935 258.063 526.486 257.463ZM531.839 283.424C532.831 281.029 534.276 279.463 536.175 278.725C538.074 277.988 540.117 278.072 542.305 278.978C544.493 279.885 545.997 281.27 546.818 283.134C547.639 284.998 547.554 287.127 546.562 289.522C545.57 291.917 544.125 293.483 542.226 294.22C540.327 294.958 538.284 294.874 536.096 293.967C533.908 293.061 532.404 291.676 531.583 289.812C530.762 287.948 530.847 285.818 531.839 283.424ZM540.424 283.395C539.744 283.113 539.107 283.144 538.515 283.487C537.952 283.843 537.456 284.538 537.028 285.573C536.195 287.583 536.488 288.882 537.907 289.47C538.587 289.752 539.223 289.721 539.816 289.377C540.408 289.034 540.913 288.36 541.329 287.355C541.746 286.349 541.866 285.516 541.689 284.854C541.526 284.163 541.104 283.676 540.424 283.395Z" fill="#FC800E" fill-opacity="0.21"/>
<path d="M530.261 373.123L502.565 384.527L507.61 396.777C508.257 394.988 509.476 393.24 511.265 391.535C513.054 389.829 515.192 388.464 517.677 387.441C522.116 385.613 526.199 385.108 529.927 385.926C533.715 386.72 536.947 388.434 539.624 391.069C542.301 393.705 544.407 396.886 545.943 400.615C548.794 407.539 549.107 413.846 546.883 419.538C544.634 425.171 539.959 429.449 532.857 432.373C528.123 434.323 523.681 435.218 519.532 435.057C515.358 434.838 511.727 433.669 508.639 431.549C505.551 429.429 503.139 426.512 501.402 422.797L516.226 416.693C517.337 418.381 518.828 419.566 520.701 420.249C522.55 420.872 524.657 420.696 527.025 419.721C529.806 418.576 531.512 416.835 532.142 414.499C532.772 412.163 532.478 409.516 531.259 406.557C530.065 403.657 528.441 401.731 526.387 400.777C524.333 399.823 521.945 399.907 519.223 401.028C517.211 401.856 515.761 403.041 514.873 404.584C513.961 406.067 513.627 407.692 513.871 409.461L499.224 415.492L483.323 376.878L524.778 359.807L530.261 373.123ZM540.578 390.261C536.386 380.083 535.037 371.26 536.53 363.793C538.083 356.301 543.238 350.752 551.997 347.146C560.755 343.539 568.294 343.861 574.612 348.111C580.99 352.337 586.274 359.54 590.466 369.718C594.706 380.015 596.05 388.91 594.497 396.401C593.004 403.868 587.878 409.405 579.12 413.012C570.361 416.618 562.793 416.309 556.416 412.083C550.097 407.832 544.818 400.559 540.578 390.261ZM575.553 375.859C573.091 369.882 570.552 365.564 567.934 362.904C565.292 360.186 561.929 359.667 557.845 361.348C553.762 363.03 551.74 365.766 551.778 369.557C551.792 373.289 553.03 378.143 555.491 384.12C557.148 388.145 558.762 391.391 560.332 393.859C561.877 396.268 563.701 398.008 565.804 399.08C567.941 400.069 570.43 399.978 573.271 398.809C576.112 397.639 577.913 395.963 578.675 393.78C579.473 391.514 579.572 388.981 578.973 386.183C578.35 383.325 577.21 379.883 575.553 375.859ZM581.671 355.586C579.697 350.793 579.535 346.534 581.185 342.809C582.895 339.06 585.939 336.283 590.318 334.48C594.697 332.677 598.784 332.517 602.579 333.999C606.373 335.482 609.257 338.621 611.231 343.414C613.205 348.208 613.367 352.467 611.717 356.192C610.067 359.916 607.052 362.681 602.673 364.484C598.294 366.287 594.177 366.46 590.324 365.001C586.529 363.518 583.645 360.38 581.671 355.586ZM636.17 316.741L627.727 393.307L613.081 399.339L621.523 322.772L636.17 316.741ZM593.885 343.393C591.044 344.563 590.464 347.19 592.146 351.273C593.803 355.297 596.052 356.724 598.892 355.555C600.254 354.994 601.112 354.053 601.467 352.73C601.822 351.407 601.585 349.739 600.756 347.727C599.075 343.644 596.784 342.199 593.885 343.393ZM638.108 372.629C636.134 367.836 635.972 363.576 637.622 359.852C639.272 356.127 642.287 353.363 646.666 351.559C651.045 349.756 655.132 349.596 658.926 351.079C662.721 352.562 665.605 355.7 667.579 360.493C669.553 365.287 669.715 369.546 668.065 373.271C666.415 376.996 663.4 379.76 659.021 381.563C654.642 383.366 650.555 383.527 646.76 382.044C642.966 380.561 640.082 377.423 638.108 372.629ZM650.232 360.473C648.871 361.033 648.013 361.975 647.658 363.298C647.362 364.596 647.641 366.281 648.494 368.352C650.151 372.376 652.4 373.804 655.24 372.634C656.601 372.074 657.459 371.132 657.814 369.809C658.17 368.486 657.933 366.819 657.104 364.807C656.276 362.795 655.27 361.444 654.086 360.755C652.878 360.006 651.593 359.912 650.232 360.473Z" fill="#FC800E" fill-opacity="0.21"/>
<path d="M301.237 297.208L290.854 343.006L278.44 345.164L289.27 300.676L267.208 304.511L265.408 294.154L299.671 288.199L301.237 297.208ZM301.493 313.752C300.079 305.618 300.526 298.939 302.833 293.715C305.188 288.482 309.865 285.258 316.864 284.041C323.863 282.825 329.33 284.286 333.265 288.426C337.247 292.557 339.945 298.689 341.359 306.823C342.789 315.052 342.327 321.783 339.972 327.015C337.665 332.239 333.011 335.46 326.012 336.676C319.013 337.893 313.522 336.435 309.54 332.304C305.605 328.165 302.923 321.981 301.493 313.752ZM329.442 308.895C328.611 304.118 327.454 300.544 325.97 298.171C324.478 295.751 322.1 294.824 318.837 295.391C315.574 295.958 313.648 297.633 313.06 300.415C312.463 303.149 312.58 306.905 313.41 311.681C313.969 314.897 314.622 317.536 315.371 319.598C316.111 321.613 317.163 323.184 318.528 324.311C319.932 325.383 321.77 325.721 324.04 325.326C326.309 324.932 327.901 323.998 328.814 322.524C329.766 320.994 330.251 319.156 330.267 317.009C330.276 314.815 330.001 312.111 329.442 308.895ZM337.218 295.047C336.552 291.216 337.126 288.071 338.94 285.612C340.801 283.145 343.481 281.608 346.981 280.999C350.48 280.391 353.499 280.938 356.036 282.641C358.573 284.344 360.174 287.11 360.84 290.941C361.506 294.772 360.932 297.916 359.118 300.375C357.304 302.834 354.647 304.368 351.148 304.976C347.648 305.584 344.606 305.041 342.022 303.347C339.485 301.644 337.884 298.877 337.218 295.047ZM383.436 275.467L364.805 330.153L353.1 332.188L371.731 277.502L383.436 275.467ZM348.143 288.105C345.873 288.5 345.021 290.329 345.588 293.592C346.147 296.808 347.562 298.218 349.832 297.824C350.919 297.635 351.701 297.085 352.176 296.174C352.651 295.263 352.749 294.004 352.469 292.396C351.902 289.133 350.46 287.703 348.143 288.105ZM375.767 316.701C375.102 312.871 375.676 309.726 377.489 307.267C379.303 304.808 381.96 303.275 385.459 302.667C388.959 302.058 391.977 302.606 394.514 304.308C397.051 306.011 398.653 308.778 399.318 312.608C399.984 316.439 399.41 319.583 397.596 322.042C395.783 324.501 393.126 326.035 389.626 326.643C386.127 327.251 383.109 326.704 380.572 325.001C378.035 323.299 376.433 320.532 375.767 316.701ZM386.621 309.772C385.533 309.962 384.752 310.511 384.277 311.422C383.849 312.325 383.779 313.604 384.067 315.259C384.626 318.475 386.04 319.885 388.31 319.491C389.398 319.302 390.179 318.752 390.654 317.841C391.129 316.93 391.227 315.671 390.948 314.063C390.668 312.455 390.151 311.303 389.397 310.606C388.634 309.861 387.709 309.583 386.621 309.772Z" fill="#FC800E" fill-opacity="0.21"/>
</svg>
